<svg width="31" height="22" viewBox="0 0 31 22" fill="none" xmlns="http://www.w3.org/2000/svg">
<path d="M17.0185 12.0323L12.3793 19.9778L7.74004 12.0323H17.0185ZM18.2614 11.3221H6.49219L12.3793 21.3832L18.2614 11.3221Z" fill="white"/>
<path d="M25.0841 2.14988L29.7234 10.0954H20.4449L25.0841 2.14988ZM25.0841 0.729614L19.197 10.7906H30.9712L25.0841 0.729614Z" fill="white"/>
<path d="M0.851562 0.729614L5.78769 9.62861L11.1817 0.95307L0.851562 0.729614Z" fill="#4CAF4F"/>
<path d="M12.3793 1.50916L17.557 10.3585H7.19165L12.3793 1.50916Z" fill="#4CAF4F"/>
<path d="M18.8902 12.2905L24.0728 21.3832H13.4609L18.7291 12.2905H18.8902Z" fill="#4CAF4F"/>
<path d="M20.0122 11.7393L25.0842 20.6929L30.2266 11.7393H20.0122Z" fill="#4CAF4F"/>
</svg>
